<svg xmlns="http://www.w3.org/2000/svg" xmlns:xlink="http://www.w3.org/1999/xlink" version="1.1" x="0px" y="0px" viewBox="0 0 100 125" style="enable-background:new 0 0 100 100;" xml:space="preserve"><path d="M71.6,45.5c-0.5-1.1-1.2-2.2-1.8-3.2L50,8.1L30.3,42.3c-0.7,1-1.3,2.1-1.8,3.2L8.7,79.7h82.6L71.6,45.5z M67,47.6  c1.2,2.5,1.9,5.2,1.9,8.2c0,9.6-7.2,17.5-16.4,18.7V37.1c5.4,0.7,10.1,3.7,13,8L67,47.6z M33,47.6l1.5-2.6c3-4.3,7.6-7.3,13-8v37.4  c-9.2-1.2-16.4-9.1-16.4-18.7C31.1,52.9,31.8,50.1,33,47.6z M52.5,22.5l6.4,11.1c-2-0.8-4.2-1.4-6.4-1.6V22.5z M47.5,32  c-2.3,0.2-4.4,0.8-6.4,1.6l6.4-11.1V32z M17.4,74.7l9-15.6c0.9,6.3,4.2,11.8,9.1,15.6H17.4z M73.7,59.1l9,15.6h-18  C69.4,71,72.8,65.4,73.7,59.1z"/><text x="0" y="115" fill="#000000" font-size="5px" font-weight="bold" font-family="'Helvetica Neue', Helvetica, Arial-Unicode, Arial, Sans-serif">Created by Lukáš Jača</text><text x="0" y="120" fill="#000000" font-size="5px" font-weight="bold" font-family="'Helvetica Neue', Helvetica, Arial-Unicode, Arial, Sans-serif">from the Noun Project</text></svg>