<svg xmlns="http://www.w3.org/2000/svg" xmlns:xlink="http://www.w3.org/1999/xlink" version="1.1" x="0px" y="0px" viewBox="0 0 100 125" style="enable-background:new 0 0 100 100;" xml:space="preserve"><style type="text/css">
	.st0{fill:#FFFFFF;}
</style><g><path d="M30.7,72.3c-0.7,0.9-1.3,1.9-2.2,2.7c-0.9,0.8-1,1.8-0.6,2.7c0.7,1.4,1.5,2.8,2.3,4.2c0.2,0.4,0.6,0.6,0.8,1   c0.6,0.9,0.8,1.9,0.1,2.8c-0.6,0.9-1.5,1-2.5,0.8c-2-0.4-3.4-1.5-4.3-3.3c-1.6,0.9-2.6,0.7-3.9-0.7c-2-2.3-2.7-5.1-2.5-8.1   c0.1-1.8,0.7-3.6,1.1-5.4c0.7-3.3,1-6.5-0.4-9.7c-1.1-2.7-1.1-5.2-0.2-8c0.9-3,1.3-6.2,2-9.3c0.6-2.6-0.5-5-0.9-7.4   c-0.7-4.3-0.9-8.6-0.2-12.9c0.1-0.8,0.5-1.2,1.3-1.5c8.1-3.4,16.5-5,25.2-5c11.7-0.1,22.9,2.3,33.8,6.6c0.9,0.4,1.4,0.8,1.2,1.8   c-0.6,3.9-0.9,7.9-1.9,11.7c-1,3.8-0.9,7.5-0.1,11.2c0.4,1.9,1,3.8,1.6,5.6c0.8,2.5,0.5,4.9-0.5,7.3c-0.4,0.9-0.7,2-0.7,3   c-0.2,2.7-0.1,5.4,0.8,8c1.3,3.8,1.2,7.7-1.2,11.3c-0.3,0.4-0.6,0.8-0.9,1.1c-1.2,1.2-2.1,1.3-3.6,0.5c-0.9,1.6-2.2,2.8-4.1,3.2   c-1.1,0.2-2.1,0.2-2.8-0.9c-0.6-1.1-0.3-2.1,0.4-3c0.8-1,1.6-2,2.2-3.1c0.4-0.7,0.6-1.5,0.8-2.2c0.2-0.8,0-1.5-0.6-2.2   c-0.8-0.8-1.5-1.8-2.1-2.7c-1.5,0.6-3,1.2-4.5,1.9c-0.2,0.1-0.5,0.3-0.6,0.5c-2.5,3.8-6,6-10.3,7.1c-0.1,0-0.2,0.1-0.2,0.1   c0.3,0.9,1,1.8,0.9,2.6c-0.2,1-0.8,2.1-1.5,2.8c-2.7,2.6-2.1,2.6-4.8,0.1c-1.9-1.8-2-3-0.6-5.3c-3.8-0.8-7.3-2.3-9.7-5.4   c-1.2-1.5-2.5-2.7-4.4-3.2C32,73.2,31.4,72.7,30.7,72.3z M75.3,56.2c-0.2-0.1-0.3-0.2-0.5-0.3c-0.3,0.4-0.6,0.8-0.9,1.2   c-0.5,0.9-0.9,1.9-1.6,2.6c-1.3,1.5-3.2,2.1-5.1,2.5c-5.1,1-10.1,0.4-15.1-0.3c-1.1-0.2-2.2-0.4-3.3-0.3c-1.8,0.1-3.5,0.6-5.3,0.8   c-3.8,0.4-7.7,0.7-11.5-0.1c-3.1-0.7-6-1.8-6.9-5.4c-0.1-0.3-0.7-0.6-1-0.8c-0.1,0.1-0.2,0.1-0.3,0.2c0.4,1,0.6,2,1.1,2.9   c0.7,1.1,0.9,2.2,0.9,3.5c0,1.9,0.7,3.6,2.4,4.7c0.4,0.2,0.7,0.6,0.9,1c1.3,2.6,3.4,4,6.1,4.8c0.5,0.1,1.1,0.5,1.4,1   c6.4,9.2,19.2,9.2,25.6,0c0.3-0.4,0.9-0.8,1.4-1c2.7-0.8,4.8-2.2,6.1-4.8c0.2-0.3,0.3-0.7,0.6-0.8c2.3-1.3,2.8-3.4,2.8-5.8   c0-0.7,0.3-1.3,0.6-2C74.3,58.5,74.8,57.4,75.3,56.2z M74.3,49.1c0.1-3.4-0.2-6.4-1.3-9.4c-0.1-0.4-0.7-0.8-1.1-0.9   c-2.8-0.5-5.7-1-8.5-1.2c-7.5-0.7-15-0.5-22.5,0c-4.6,0.3-9.2,0.8-13.7,1.2c-0.5,0.1-1.3,0.3-1.5,0.7c-1.2,3-1.6,6.2-1.4,9.7   c3-1.5,6-2.1,9.2-2.3c0.3,0,0.5-0.3,0.8-0.5c1.3-1.3,2.5-1.2,3.7,0.1c0.4,0.4,1.1,0.8,1.7,1c2.7,0.7,5.2,1.6,6.8,4.1   c1.8-0.7,3.6-0.8,5.4-0.2c0.2,0.1,0.7,0,0.8-0.2c1.8-2.5,4.5-3.2,7.2-3.9c0.6-0.2,1.2-0.5,1.7-0.9c1.1-0.9,2.1-1,3.2-0.1   c0.3,0.2,0.6,0.5,0.9,0.5C68.6,47.1,71.5,47.6,74.3,49.1z M72.4,57.2c-0.5,0.1-0.9,0.2-1.2,0.3c-5,1.3-9.9,1.3-14.7-0.6   c-1.3-0.5-2.7-1.3-3.5-2.4c-1.3-1.8-3-2-4.8-1.7c-0.7,0.1-1.6,0.5-1.9,1c-1,1.6-2.4,2.5-4.1,3.2c-3.4,1.3-6.9,1.6-10.5,1.3   c-1.7-0.2-3.3-0.6-5-0.9c0.4,0.9,1,1.8,1.7,2.1c1.6,0.7,3.2,1.4,4.9,1.7c5,0.8,10,0.1,14.9-0.8c0.6-0.1,1-0.7,1.3-0.9   c-0.3-0.7-0.4-1.1-0.6-1.6c0.1,0,0.2-0.1,0.3-0.1c0.5,0.4,1,0.9,1.5,1.3c-0.3,0.4-0.5,0.7-0.7,1.1c2.8,1,11.4,1.8,14.8,1.2   c1.8-0.3,3.6-0.9,5.3-1.5C71.2,59.5,72.1,58.6,72.4,57.2z M79.3,52.7c-0.1,2.5-1.1,4.4-3.2,5.9c-0.9,0.7-1.7,1.9-1.6,3.4   c0.1,2.5-0.8,4.7-2.9,6.2c-2.2,1.5-2.3,3.2-0.6,5.2c0.2,0.2,0.4,0.5,0.6,0.7c1.2,1,1.2,2.2,0.9,3.6c-0.5,2.2-1.7,3.9-3.1,5.6   c-0.3,0.4-0.3,1-0.5,1.5c0.5,0,1.1,0.3,1.5,0.1c2.1-0.6,3-2.4,3.6-4.3c0.2-0.6,0.2-1.3,0.6-1.8c0.9-1.5,1-3.2,0.8-4.9   c-0.1-0.6-0.2-1.3,0.6-1.4c0.2,0,0.7,0.7,0.8,1.1c0.6,2.3-0.2,4.5-0.9,6.6c-0.2,0.6-0.1,1.4-0.1,2.3c1.9-0.9,2.6-2.2,3.2-3.6   c1-2.8,1-5.6,0-8.3c-1-2.8-1.1-5.5-0.9-8.4c0.1-1.2,0.4-2.4,0.9-3.5C79.7,56.8,80,54.8,79.3,52.7z M22.8,82.4   c0.2,0,0.3-0.1,0.5-0.1c-0.1-0.7,0-1.4-0.2-2.1c-0.7-2.2-1.5-4.5-0.8-6.9c0.1-0.3,0.5-0.6,0.8-0.8c0.2,0.4,0.5,0.8,0.5,1.2   c0.1,0.6-0.2,1.2-0.1,1.8c0.3,2.8,1.3,5.4,2.8,7.8c0.5,0.9,1.8,1.3,2.8,1.8c0.2,0.1,0.9-0.1,1-0.3c0.1-0.3,0-0.8-0.2-1.1   c-0.2-0.3-0.5-0.6-0.8-0.9c-1.3-1.5-2.2-3.2-2.6-5.2c-0.3-1.3-0.2-2.4,0.9-3.4c0.8-0.7,1.3-1.6,1.9-2.5c0.1-0.2,0.3-0.6,0.2-0.8   c-0.6-1-1.2-2.1-2-2.8c-1.9-1.5-2.8-3.3-2.9-5.6c0-1.1-0.1-2.1-0.8-2.9c-0.4-0.5-0.8-1-1.4-1.4c-1.7-1.1-2.4-2.9-2.8-5   c-0.4,2.1-0.2,3.7,0.6,5.5c1.5,3.6,1.4,7.3,0.3,10.9c-0.7,2.5-1.2,5-0.8,7.7C20,79.4,20.8,81.3,22.8,82.4z M32.9,48.3   c-1.5,0.3-3.3,0.5-4.9,1c-1.2,0.3-2.4,0.9-3.4,1.6c-1.7,1.1-1.7,2.4,0,3.6c0.8,0.6,1.7,1.1,2.6,1.4c4.7,1.6,9.4,1.6,14.1,0   c1-0.3,2-0.9,2.8-1.5c1.4-1,1.4-2.2,0.1-3.3c-1.4-1.2-3.1-1.8-4.9-2.2c0,0.7,0.1,1.2,0.1,1.8c0,0.6,0,1.2-0.2,1.8   c-0.4,1.8-1.4,3-2.6,3.1c-1.2,0.1-2.5-0.9-3-2.7C33.2,51.5,33.1,50,32.9,48.3z M60.1,49c-1.7,0-4.8,1.3-5.8,2.5   c-0.8,0.9-0.8,1.8,0,2.5c0.9,0.8,2,1.5,3.1,1.9c3.8,1.4,7.8,1.6,11.7,0.7c1.8-0.4,3.6-1.2,5.2-2.2c1.4-0.8,1.5-2,0.5-3   c-2.5-2.3-5.6-2.7-8.9-3c0.4,2.2,0.3,4.1-0.8,5.9c-0.6,0.9-1.3,1.6-2.4,1.5c-1.1-0.1-1.8-0.8-2.2-1.8c-0.3-0.8-0.5-1.7-0.6-2.5   C59.9,50.6,60,49.8,60.1,49z M49.8,82.3c-1.1-0.1-2.3,0.2-2.8,1.4c-0.5,1.2,0.4,2.1,1.2,2.9c1.6,1.8,2,1.7,3.7-0.4   c0.6-0.8,1.4-1.6,0.8-2.7C52.1,82.6,51.1,82.1,49.8,82.3z M78.1,49.2c-0.2-1.3-0.5-2.5-0.7-3.8c-0.2-1.3-0.4-2.6-0.5-3.9   c0-1.3-0.7-1.6-1.8-1.7c0.3,2,0.8,3.9,0.9,5.8C76.2,47.2,76.7,48.4,78.1,49.2z M23.4,39.4c-0.9-0.1-1.2,0.2-1.3,1   c0,0.9-0.2,1.8-0.3,2.7c-0.3,1.9-0.5,3.7-0.8,5.6c1-0.5,1.4-1.2,1.3-2.3c-0.1-0.5,0-1,0.1-1.4C22.7,43.2,23.1,41.3,23.4,39.4z    M22.4,49.5c-2.2,1.8-2,6.1,0.3,7.2c-0.1-0.9-0.5-1.8-0.6-2.7c-0.1-0.9,0-1.8,0-2.6C22.2,50.8,22.3,50.3,22.4,49.5z M76.1,49.5   c0.2,0.5,0.2,1.1,0.5,1.6c0.5,1,0.5,1.9,0.1,3c-0.3,0.7-0.2,1.6-0.3,2.3C78.5,54.3,78.4,51.3,76.1,49.5z"/><path class="st0" d="M59.9,59.4c-1.3-0.2-2.7-0.3-4-0.7c-1.2-0.3-2.4-0.9-3.9-1.5C54.4,59.9,57.3,59.4,59.9,59.4z M38.1,59.4   c4.3,0.4,7.2-0.6,7.5-2.3C43.4,58.9,40.7,59.1,38.1,59.4z"/><path d="M43.1,63.6c1-0.1,2.1-0.1,3.1-0.3c2-0.3,4-0.5,6.1-0.1c1.7,0.3,3.6,0.1,5.4,0.2c0.4,0,0.8,0.3,1.3,0.4   c-0.2,0.4-0.3,0.9-0.6,1.2c-5.2,5.3-13,5.2-18.1-0.1c-0.2-0.2-0.5-0.8-0.4-1c0.1-0.3,0.6-0.5,1-0.5c0.7-0.1,1.4,0,2.2,0   C43.1,63.5,43.1,63.5,43.1,63.6z M57.1,64.6c-1.3,0-2.4,0.1-3.5,0c-2.4-0.3-4.7-0.7-7.1-0.2c-1.4,0.3-2.9,0.2-4.4,0.4   C46.2,68.9,53.1,68.7,57.1,64.6z"/><path d="M59.9,59.4c-2.7,0-5.6,0.5-7.8-2.2c1.5,0.6,2.6,1.2,3.9,1.5C57.3,59.1,58.6,59.2,59.9,59.4z"/><path d="M38.1,59.4c2.6-0.4,5.3-0.6,7.5-2.3C45.3,58.9,42.4,59.8,38.1,59.4z"/></g><text x="0" y="115" fill="#000000" font-size="5px" font-weight="bold" font-family="'Helvetica Neue', Helvetica, Arial-Unicode, Arial, Sans-serif">Created by Josue Gil  </text><text x="0" y="120" fill="#000000" font-size="5px" font-weight="bold" font-family="'Helvetica Neue', Helvetica, Arial-Unicode, Arial, Sans-serif">from the Noun Project</text></svg>