<svg xmlns="http://www.w3.org/2000/svg" xmlns:xlink="http://www.w3.org/1999/xlink" version="1.1" x="0px" y="0px" viewBox="0 0 100 125" enable-background="new 0 0 100 100" xml:space="preserve"><g><g><g><path d="M46.761,65.191c0,11.984-17.62,12.34-18.761,0.607C26.809,53.559,45.963,52.874,46.761,65.191     c0.101,1.554,2.529,1.563,2.428,0c-0.43-6.637-5.167-11.339-11.813-11.694c-6.696-0.358-11.97,5.961-11.804,12.302     c0.393,15.021,23.617,14.383,23.617-0.607C49.189,63.626,46.761,63.626,46.761,65.191z"/></g></g><g><g><path d="M76.623,65.313c-0.317,12.133-18.126,12.059-18.775,0c-0.245-4.547,3.38-8.087,7.47-9.194     C71.252,54.513,76.324,59.768,76.623,65.313c0.084,1.557,2.512,1.565,2.428,0c-0.36-6.688-5.123-11.456-11.812-11.816     c-6.481-0.35-11.747,5.649-11.818,11.816c-0.077,6.691,5.457,11.473,11.818,11.815c6.543,0.353,11.651-5.657,11.812-11.815     C79.092,63.747,76.664,63.751,76.623,65.313z"/></g></g><g><g><path d="M48.927,65.954c2.102-1.93,4.559-1.783,6.726,0.036c1.173,0.985,2.875-0.698,1.691-1.691     c-3.188-2.679-6.982-2.907-10.109-0.036C46.096,65.308,47.792,66.996,48.927,65.954L48.927,65.954z"/></g></g><g><g><path d="M80.264,64.585c-0.813,0-1.626,0-2.439,0c-1.565,0-1.565,2.428,0,2.428c0.813,0,1.626,0,2.439,0     C81.829,67.013,81.829,64.585,80.264,64.585L80.264,64.585z"/></g></g><g><g><path d="M26.786,64.585c-0.895,0-1.789,0-2.683,0c-1.565,0-1.565,2.428,0,2.428c0.895,0,1.789,0,2.683,0     C28.352,67.013,28.352,64.585,26.786,64.585L26.786,64.585z"/></g></g><g><polygon points="43.283,38.528 46.6,39.175 49.999,46.297 47.491,47.105 49.999,53.012 43.283,45.407 46.034,44.192   "/><g><path d="M43.202,38.821c1.068,0.208,2.136,0.417,3.204,0.625c0.177,0.035,1.064,2.254,1.27,2.686     c0.624,1.308,1.248,2.616,1.873,3.924c0.269,0.563,0.438-0.073-0.127,0.109c-0.67,0.216-1.341,0.432-2.011,0.648     c-0.204,0.065-0.259,0.262-0.182,0.446c0.836,1.969,1.672,3.938,2.508,5.906c0.159-0.123,0.318-0.245,0.477-0.368     c-1.544-1.749-3.089-3.498-4.634-5.248c-0.659-0.746-1.317-1.492-1.976-2.238c0.12,0.136-0.127,0.34,0.704-0.027     c0.627-0.277,1.254-0.554,1.881-0.831c0.159-0.071,0.174-0.28,0.109-0.416c-0.917-1.888-1.834-3.775-2.751-5.664     c-0.171-0.352-0.694-0.044-0.524,0.307c0.726,1.494,1.452,2.988,2.177,4.482c0.156,0.321,0.312,0.643,0.469,0.965     c0.113,0.233,0.333-0.251-0.216-0.009c-0.774,0.342-1.547,0.684-2.321,1.025c-0.19,0.084-0.178,0.345-0.061,0.477     c2.238,2.535,4.477,5.07,6.716,7.605c0.249,0.281,0.6-0.077,0.477-0.368c-0.597-1.406-1.194-2.812-1.792-4.218     c-0.17-0.4-0.34-0.801-0.51-1.201c-0.293-0.69-0.003-0.165-0.249-0.085c0.79-0.255,1.579-0.509,2.369-0.764     c0.197-0.063,0.268-0.265,0.182-0.446c-0.971-2.034-1.941-4.068-2.913-6.103c-0.818-1.715-2.116-1.44-3.985-1.805     C42.981,38.161,42.818,38.746,43.202,38.821z"/></g></g><path d="M80.249,54.281c0,0-17.606-17.692-37.691-20.258c0,0-7.572,13-14.74,18.19l0.674,3.401   c-1.998,1.83-3.428,4.272-3.996,7.026l-1.225-8.359c0,0-4.247-12.118-0.618-19.021c0,0-1.84-1.225-3.007-0.448   c1.02-0.969,3.596-3.027,5.47-1.246c-0.175-0.201-2.277-2.683,0.014-3.613c0,0,0.796,2.211,1.593,1.857   c0,0,5.307-7.727,13.979-4.335C40.702,27.476,82.717,10.03,80.249,54.281z"/><path d="M21.353,36.902c-0.223,0.213-0.364,0.368-0.398,0.402C21.071,37.131,21.207,37,21.353,36.902z"/></g><text x="0" y="115" fill="#000000" font-size="5px" font-weight="bold" font-family="'Helvetica Neue', Helvetica, Arial-Unicode, Arial, Sans-serif">Created by David S</text><text x="0" y="120" fill="#000000" font-size="5px" font-weight="bold" font-family="'Helvetica Neue', Helvetica, Arial-Unicode, Arial, Sans-serif">from the Noun Project</text></svg>