<svg xmlns="http://www.w3.org/2000/svg" xmlns:xlink="http://www.w3.org/1999/xlink" version="1.1" x="0px" y="0px" viewBox="0 0 101 103.75" enable-background="new 0 0 101 83" xml:space="preserve"><title>Hat</title><desc>Created with Sketch.</desc><g><path fill="#000000" d="M96.615,63c-0.242,0-0.49,0.016-0.74,0.043c-1.232,0.141-2.51,0.605-3.787,1.291   c-0.465,0.249-0.896,0.512-1.297,0.777l-0.389-0.416l-0.49-0.527l-0.656,0.299c-0.181,0.082-0.54,0.233-1.057,0.432   c-0.871,0.33-1.858,0.664-2.941,0.976c-2.512,0.721-5.134,1.2-7.765,1.354c-0.604-0.806-1.099-1.174-1.478-1.354   c0.068,0.033-0.06-0.061-0.227-0.184c-0.275-0.207-0.557-0.424-0.812-0.643c-0.183-0.152-0.345-0.3-0.483-0.438   c-0.124-0.121-0.22-0.228-0.298-0.318c0.404-0.62,0.685-1.248,0.84-1.868c0.128-0.513,0.164-0.954,0.146-1.297   c-0.013-0.151-0.024-0.315-0.041-0.536c-0.027-0.367-0.056-0.756-0.08-1.148c-0.021-0.305-0.037-0.598-0.054-0.879   c-0.041-0.729-0.062-1.328-0.062-1.746c0-1-0.562-1.785-1.424-2.396c-0.463-0.326-0.914-0.541-1.242-0.658   c0.064,0.022-0.061-0.051-0.229-0.162c-0.288-0.19-0.577-0.416-0.843-0.67c-0.809-0.771-1.215-1.604-1.094-2.479   c0.059-0.418,0.072-0.853,0.044-1.302c-0.071-1.137-0.398-2.321-0.897-3.506c-0.334-0.795-0.67-1.422-0.904-1.799   c-0.119-0.166-0.252-0.353-0.424-0.607c-0.289-0.432-0.578-0.896-0.848-1.376c-0.338-0.603-0.617-1.184-0.82-1.722   c-0.267-0.708-0.382-1.302-0.338-1.722c0.1-0.942,0.108-1.911,0.033-2.906c-0.273-3.657-1.611-7.423-3.844-11.709   c-0.059-0.111-3.667-6.537-3.667-6.871c0-1.187-0.419-2.057-1.147-2.563c-0.463-0.321-0.922-0.429-1.287-0.43   c-0.492,0.022-0.949-0.011-1.359-0.127c-0.629-0.179-0.9-0.456-0.9-0.984c0-0.285-0.029-0.573-0.088-0.866   c-0.206-1.034-0.746-2.081-1.514-3.125c-0.332-0.452-0.686-0.874-1.039-1.257c-0.213-0.232-0.383-0.402-0.487-0.5   c-0.033-0.043-0.202-0.237-0.421-0.494c-0.365-0.429-0.729-0.872-1.069-1.304c-0.123-0.157-0.241-0.311-0.352-0.458   c-0.61-0.812-1.026-1.51-1.026-1.549c0-2.08-1.934-2.763-6.333-2.273c-2.028,0.226-3.434,0.068-5.162-0.415   c-0.027-0.007-0.955-0.275-1.214-0.342c-0.474-0.124-0.865-0.198-1.256-0.228C33.667,0.005,33.545,0,33.423,0   c-1.464,0-2.178,0.662-2.839,2.073c-0.03,0.065-0.188,0.408-0.232,0.503c-0.086,0.183-0.161,0.33-0.237,0.468   c-0.117,0.21-0.236,0.392-0.369,0.556c-0.277,0.346-0.933,0.668-2.205,1.068c-0.367,0.115-2.312,0.683-2.91,0.87   c-1.311,0.411-2.44,0.827-3.556,1.335c-2.552,1.162-4.338,2.128-5.506,3.06c-1.758,1.405-2.226,3.029-0.586,4.266   c1.241,0.937,3.253,0.844,6.223,0.118c0.593-0.145,1.212-0.313,1.919-0.518c0.479-0.139,1.948-0.579,2.132-0.633   c0.677-0.198,1.101-0.307,1.358-0.347c1.733-0.269,2.792,0.313,3.072,1.96c0.221,1.296,0.964,2.354,2.037,3.192   c0.742,0.581,1.478,0.946,2,1.131l1.872,0.368c-0.6,0.245-1.076,0.742-1.445,1.398c-0.275,0.49-0.442,0.965-0.526,1.31   c-0.121,0.413-0.186,0.643-0.255,0.896c-0.199,0.723-0.399,1.488-0.585,2.261c-0.14,0.579-0.267,1.141-0.378,1.679   c-0.14,0.679-0.216,1.474-0.238,2.368c-0.025,0.997,0.017,2.057,0.102,3.102c0.017,0.209,0.035,0.39,0.053,0.574   c-0.236,0.217-0.498,0.478-0.765,0.784c-0.613,0.704-1.049,1.416-1.225,2.151c-0.21,0.88-0.014,1.729,0.642,2.4   c1.043,1.065,1.03,2.314,0.168,3.944c-0.644,1.218-0.822,2.231-0.705,2.994c0.047,0.229,0.072,0.362,0.098,0.548   c0.077,0.545,0.098,1.109,0.033,1.614c-0.021,0.162-0.05,0.313-0.088,0.452c-0.073,0.267-0.158,0.416-0.292,0.564   c-0.049,0.055-0.319,0.322-0.256,0.26c-0.458,0.461-0.685,0.93-0.685,1.646c0,1.894-0.024,2.149-0.123,2.292   c-0.039,0.057-0.433,0.52-0.595,0.729c-0.394,0.508-0.797,1.125-1.265,1.965c-0.941,1.691-1.628,3.391-2.101,5.016   c-0.197,0.677-0.327,1.232-0.41,1.663C24.401,62.296,24,62.59,23.594,62.98c-0.58,0.562-1.041,1.211-1.335,1.961   c-0.17,0.434-0.259,0.847-0.286,1.236c-11-2.132-17.461-1.312-20.429,1.596c-0.656,0.645-1.084,1.349-1.322,2.062   c-0.129,0.393-0.176,0.717-0.188,0.987c-0.065,0.459-0.024,0.856,0.097,1.264c-0.029,0.071,0.088,0.269,0.088,0.269   c0.357,0.9,1.165,1.828,2.573,2.666c1.712,1.02,4.211,1.836,7.626,2.408c2.729,0.457,6.012,0.754,9.733,0.909   c4.729,0.198,9.777,0.161,14.602-0.021c0.687-0.025,1.306-0.053,1.886-0.08c9.313,2.215,18.27,3.652,26.732,4.025   c3.062,0.135,6.014,0.125,8.846-0.037c1.525-0.088,3.123-0.354,4.561-0.857c0.548-0.191,1.099-0.422,1.646-0.682   c0.571-0.271,1.111-0.562,1.605-0.854c0.127-0.075,0.229-0.14,0.328-0.199l2.685,0.295l0.461-0.058   c0.14-0.053,0.392-0.148,0.743-0.292c0.583-0.235,1.23-0.507,1.929-0.813c1.994-0.877,3.99-1.857,5.857-2.922   c5.549-3.158,8.89-6.355,8.89-9.708C100.921,64.264,99.531,63,96.615,63z M73.688,66.577c0.291,0.246,0.603,0.489,0.912,0.72   c0.188,0.139,0.334,0.242,0.42,0.303c0.254,0.135,0.496,0.315,0.76,0.658c0.498,0.646,0.779,1.564,0.762,2.794   c-13.984,1.242-28.81,0.858-42.772-2.133c-1.195-0.256-2.365-0.546-3.531-0.839c0.6-0.25,1.218-0.497,1.857-0.734   c2.001-0.742,3.955-1.312,5.774-1.652c1.178-0.219,2.275-0.332,3.274-0.332c0.688,0,1.586-0.07,2.911-0.219   c0.702-0.078,3.497-0.414,3.941-0.467c3.479-0.404,6.124-0.623,8.737-0.665c3.93-0.055,8.019,0.124,12.072,0.455   c1.207,0.099,2.318,0.204,3.321,0.31c0.159,0.397,0.5,0.81,0.972,1.27C73.273,66.217,73.473,66.396,73.688,66.577z M24.121,65.67   c0.181-0.461,0.479-0.88,0.864-1.253c0.247-0.239,0.514-0.444,0.781-0.612c0.154-0.098,0.266-0.156,0.314-0.18l0.498-0.23   l0.072-0.545c0.01-0.074,0.037-0.238,0.086-0.479c0.083-0.412,0.198-0.881,0.349-1.398c0.433-1.486,1.063-3.046,1.928-4.6   c0.419-0.754,0.768-1.285,1.098-1.711c0.106-0.137,0.555-0.666,0.664-0.823c0.442-0.644,0.474-0.975,0.474-3.424   c0-0.132-0.001-0.129,0.098-0.229c0.054-0.053,0.257-0.256,0.326-0.332c0.34-0.375,0.581-0.803,0.739-1.379   c0.063-0.231,0.111-0.476,0.143-0.727c0.091-0.707,0.063-1.441-0.037-2.148c-0.034-0.244-0.07-0.432-0.096-0.547   c-0.02-0.123-0.01-0.283,0.016-0.463c0.561,1.307,1.655,2.139,3.297,2.139c0.411,0,0.819-0.018,1.226-0.043   c-0.34,0.291-0.688,0.576-1.007,0.873c-0.306,0.284-0.534,0.508-0.664,0.641c0,0,0.814,0.66,1.742,0.57   c0.712-0.069,1.552-0.859,1.775-1.039c0.461-0.369,0.905-0.691,1.321-0.961c0.781-0.502,1.418-0.77,1.778-0.77   c0.387,0,0.885,0.091,1.46,0.264c0.477,0.145,0.991,0.338,1.522,0.57c0.436,0.189,0.858,0.396,1.25,0.6   c0.233,0.123,0.401,0.217,0.488,0.269c0.208,0.099,0.413,0.187,0.695,0.294c0.463,0.18,0.977,0.355,1.53,0.523   c1.561,0.471,3.125,0.756,4.609,0.769c0.716,0.005,1.396-0.056,2.04-0.188c1.014-0.209,1.941-0.469,2.789-0.767   c1.463-0.515,2.441-1.042,2.954-1.419c0,0-0.646-0.762-1.651-0.914c-0.636-0.096-1.678,0.345-1.966,0.445   c-0.765,0.27-1.606,0.504-2.532,0.695c-0.496,0.103-1.039,0.148-1.619,0.146c-1.174-0.009-2.447-0.233-3.732-0.599   c0-0.147-0.121-0.213-0.283-0.311c-0.274-0.165-0.548-0.354-0.8-0.564c-0.27-0.226-0.496-0.457-0.664-0.688   c-0.732-1.011-0.579-0.797-0.662-0.933c-0.061-0.099-0.098-0.17-0.198-0.395c0.344-0.04,0.619-0.038,0.877-0.02   c0.071,0.005,0.259,0.02,0.259,0.02c0.394,0,1.006-0.093,1.763-0.361c1.218-0.433,2.426-1.201,3.538-2.385   c0.296-0.313,0.58-0.655,0.854-1.021c2.589-3.465,3.413-6.854,2.271-10.69c0.148,0.062,0.129,0.09,0.929,0.09   s1.364-1.163,1.364-1.163c-0.057-0.034-0.153-0.091-0.281-0.162c-0.21-0.118-0.432-0.236-0.656-0.347   c-0.15-0.074-0.297-0.143-0.438-0.205c-0.203-0.089-0.393-0.163-0.572-0.221C56.361,27.11,55.555,27,55.046,27   c-3.616,0-6.267,2.597-8.82,7.33c-0.594,1.1-2.279,4.57-2.228,4.469c-0.796,1.572-1.598,2.568-2.346,3.117   c-0.375,0.275-0.599,0.355-0.642,0.357c0.02-0.002-0.132-0.026-0.387-0.121c-0.488-0.184-1.046-0.527-1.658-1.085   c-0.135-0.124-0.278-0.258-0.45-0.424c-0.111-0.106-0.233-0.225-0.472-0.458c-2.085-2.021-3.358-2.802-4.984-2.368   c-0.184-0.282-0.394-0.559-0.654-0.825c-0.15-0.153-0.183-0.295-0.125-0.537c0.085-0.359,0.367-0.819,0.787-1.3   c0.185-0.212,0.383-0.408,0.582-0.593l2.727,1.631c0.699,0.177,1.37,0.194,1.996,0.014c0.8-0.231,1.628-0.887,2.562-1.904   c0.463-0.505,0.946-1.096,1.441-1.754c0.566-0.753,1.121-1.556,1.642-2.359c0.183-0.281,0.348-0.542,0.493-0.776   c0.041-0.065,0.927-1.784,2.152-3.461C48.105,23.978,49.92,22,49.92,22c-1.811,0-3.477,1.21-5.043,3.177   c-0.518,0.649-0.988,1.341-1.404,2.032c-0.251,0.417-0.43,0.744-0.53,0.94c0.005-0.014-0.051,0.08-0.134,0.212   c-0.138,0.223-0.296,0.473-0.47,0.741c-0.498,0.767-1.027,1.533-1.563,2.246c-0.458,0.61-0.901,1.151-1.316,1.604   c-0.701,0.764-1.294,1.234-1.642,1.334c-0.253,0.073-0.572,0.064-0.951-0.031c-0.558-0.141-1.193-0.459-1.852-0.899   c-0.25-0.167-0.479-0.285-0.69-0.364c-0.019-0.184-0.04-0.407-0.062-0.671c-0.079-0.98-0.118-1.972-0.095-2.89   c0.02-0.784,0.084-1.466,0.197-2.013c0.107-0.515,0.229-1.056,0.364-1.615c0.181-0.75,0.375-1.495,0.569-2.198   c0.116-0.421,0.206-0.734,0.257-0.905c0.058-0.231,0.17-0.55,0.341-0.854c0.213-0.38,0.415-0.548,0.559-0.548   c0.843,0,1.49-0.367,1.935-0.939c0.106,0.014,0.205,0.027,0.33,0.042c0.673,0.076,1.348,0.122,1.986,0.12   c1.28-0.004,2.263-0.183,2.93-0.681c0.258-0.192,0.655-0.366,1.151-0.506c0.419-0.119,0.877-0.205,1.337-0.264   c0.276-0.035,0.487-0.052,0.597-0.058c0.218-0.017,0.351-0.015,0.454,0.004c0.027,0.005,0.907-1.869,0.356-1.968   c-0.294-0.053-0.584-0.059-0.854-0.04c-0.212,0.013-0.474,0.035-0.805,0.077c-0.551,0.07-1.104,0.175-1.63,0.323   c-0.71,0.201-1.319,0.467-1.802,0.828c-0.219,0.164-0.864,0.281-1.74,0.284c-0.52,0.001-1.084-0.037-1.65-0.098l-0.883-0.487   l-3.917-0.758c0.072,0.014-0.079-0.049-0.282-0.15c-0.346-0.172-0.691-0.383-1.01-0.632c-0.712-0.557-1.17-1.208-1.297-1.953   c-0.484-2.844-2.627-4.023-5.35-3.601c-0.372,0.058-0.853,0.181-1.613,0.404c-0.193,0.057-1.658,0.496-2.126,0.631   c-0.682,0.198-1.275,0.359-1.838,0.497c-2.362,0.577-3.981,0.652-4.543,0.229c-0.306-0.231-0.258-0.397,0.63-1.107   c1-0.799,2.677-1.706,5.086-2.803c1.033-0.47,2.087-0.859,3.326-1.247c0.571-0.179,2.519-0.747,2.911-0.871   c1.639-0.515,2.557-0.966,3.165-1.723c0.208-0.258,0.388-0.533,0.557-0.837c0.101-0.181,0.194-0.366,0.297-0.586   c0.051-0.107,0.21-0.453,0.235-0.509C32.764,2.136,32.91,2,33.423,2c0.069,0,0.141,0.003,0.214,0.008   c0.256,0.02,0.538,0.073,0.906,0.169c0.229,0.06,1.131,0.319,1.18,0.333c1.958,0.547,3.614,0.733,5.921,0.477   c1.965-0.219,3.22-0.18,3.851,0.043c0.26,0.092,0.261,0.094,0.261,0.242c0,0.684,0.483,1.496,1.428,2.752   c0.12,0.159,0.246,0.322,0.377,0.49c0.357,0.455,0.738,0.918,1.119,1.365c0.229,0.269,0.408,0.474,0.511,0.59   c0.134,0.131,0.271,0.269,0.453,0.465c0.306,0.331,0.611,0.696,0.896,1.082c0.608,0.83,1.024,1.635,1.163,2.333   c0.033,0.167,0.05,0.327,0.05,0.476c0,1.548,0.949,2.508,2.356,2.908c0.649,0.185,1.306,0.232,1.871,0.207   c0.349,0.186,0.469,0.435,0.469,0.99c0,0.679,0.355,1.451,1.31,3.147c0.197,0.351,1.021,1.792,1.212,2.132   c0.524,0.928,0.957,1.718,1.372,2.515c2.117,4.066,3.374,7.602,3.623,10.935c0.066,0.878,0.058,1.728-0.028,2.548   c-0.082,0.782,0.09,1.66,0.457,2.634c0.239,0.642,0.562,1.312,0.945,1.995c0.299,0.531,0.614,1.041,0.934,1.516   c0.19,0.285,0.344,0.498,0.434,0.617c-0.007-0.003,0.072,0.135,0.182,0.334c0.182,0.338,0.362,0.715,0.531,1.117   c0.419,0.993,0.688,1.973,0.744,2.854c0.021,0.32,0.011,0.621-0.027,0.9c-0.226,1.62,0.465,3.03,1.692,4.202   c0.61,0.583,1.221,0.987,1.651,1.212c0.297,0.117,0.599,0.26,0.888,0.465c0.389,0.274,0.58,0.543,0.58,0.766   c0,0.464,0.022,1.095,0.063,1.856c0.016,0.286,0.034,0.587,0.055,0.896c0.024,0.4,0.055,0.798,0.082,1.171   c0.017,0.225,0.029,0.393,0.037,0.485c0.022,0.412-0.086,0.969-0.431,1.604c-0.103-0.013-0.198-0.021-0.31-0.033   c-1.045-0.11-2.213-0.221-3.479-0.323c-4.112-0.336-8.264-0.519-12.149-0.464c-2.812,0.046-5.518,0.269-9.053,0.681   c-0.453,0.054-3.24,0.39-3.931,0.466c-1.255,0.14-2.096,0.206-2.689,0.206c-1.13,0-2.347,0.127-3.638,0.365   c-1.945,0.36-4.004,0.965-6.105,1.744c-1.232,0.457-2.403,0.944-3.476,1.437c-0.311,0.142-0.588,0.272-0.843,0.396   c-1.058-0.258-2.088-0.498-3.078-0.712C23.949,66.322,23.978,66.034,24.121,65.67z M20.234,76.341   c-3.645-0.153-6.849-0.442-9.485-0.884C7.56,74.922,5.29,74.18,3.814,73.303c-0.616-0.365-1.044-0.729-1.339-1.086   c0.062-0.057,0.121-0.111,0.197-0.172c0.884-0.689,2.29-1.123,4.364-1.123c2.478,0,4.218,0.227,6.192,0.742   c0.736,0.191,4.192,1.238,5.355,1.555c0.604,0.164,4.836,1.45,5.688,1.703c1.808,0.537,3.567,1.04,5.331,1.521   C26.442,76.489,23.269,76.469,20.234,76.341z M91.041,74.107c-1.801,1.023-3.736,1.977-5.673,2.828   c-0.679,0.299-1.308,0.562-1.871,0.791c-0.2,0.08-0.354,0.141-0.479,0.188l-2.791-0.308l-0.359-0.041l-0.305,0.203   c-0.096,0.062-0.283,0.184-0.549,0.338c-0.445,0.264-0.935,0.524-1.449,0.771c-0.486,0.23-0.974,0.436-1.447,0.604   c-1.236,0.434-2.659,0.67-4.016,0.748c-2.762,0.158-5.646,0.166-8.643,0.035c-8.078-0.355-26.012-4.068-26.427-4.049   c-0.855-0.146-1.505-0.296-2.161-0.46c-3.411-0.852-6.629-1.743-10.028-2.754c-0.822-0.244-5.097-1.543-5.734-1.716   c-1.123-0.305-4.59-1.354-5.373-1.561c-2.139-0.56-4.048-0.808-6.698-0.808c-1.923,0-3.451,0.338-4.627,0.938   c0.138-0.221,0.313-0.441,0.534-0.658c2.5-2.451,8.685-3.128,19.711-0.85c0.125,0.149,4.127,0.916,6.102,1.433   c1.507,0.394,3.038,0.757,4.591,1.09c15.38,3.294,31.736,3.479,46.928,1.819c1.994-0.217,3.783-0.45,5.343-0.685   c0.547-0.082,1.026-0.157,1.437-0.227c0.246-0.042,0.416-0.072,0.506-0.089c0,0,0.06-0.664,0-0.989   c-0.061-0.33-0.36-0.978-0.36-0.978c-0.079,0.015-0.238,0.041-0.476,0.082c-0.397,0.065-0.867,0.142-1.401,0.221   c-1.533,0.229-3.298,0.46-5.263,0.675c-0.502,0.055-1.008,0.104-1.514,0.151c-0.006-0.61-0.07-1.178-0.193-1.694   c2.535-0.206,5.045-0.679,7.457-1.369c1.14-0.327,2.179-0.678,3.101-1.026c0.181-0.07,0.347-0.137,0.504-0.199l0.504,0.543   l0.625,0.673l0.724-0.566c0.08-0.062,0.244-0.182,0.477-0.34c0.393-0.267,0.826-0.532,1.291-0.781   c1.072-0.573,2.126-0.958,3.068-1.063C96.277,65.01,96.45,65,96.615,65c1.852,0,2.306,0.412,2.306,1.139   C98.921,68.479,95.973,71.299,91.041,74.107z"/><path fill="#000000" d="M30.317,59.997c0.346-0.063,0.695-0.269,1.161-0.624c0.724-0.555,1.705-0.986,2.88-1.297   c0.954-0.253,1.983-0.414,3.027-0.498c0.684-0.057,1.262-0.071,1.676-0.064c0.197,0.008,0.488,0.021,0.841,0.034   c0.312,0.013,0.615,0.021,0.901,0.027c1.303,0.028,1.778,0.015,2.134-0.171c1.739-0.908,3.583-1.037,5.248-0.709   c0.247,0.049,0.413,0.093,0.516,0.123c0.07,0.037,0.153,0.082,0.263,0.138c0.271,0.138,0.558,0.274,0.85,0.403   c0.241,0.105,0.476,0.203,0.702,0.287c0.736,0.271,1.335,0.401,1.847,0.332c5.697-0.799,10.478-0.326,14.312,0.938   c0.87,0.287,1.613,0.592,2.234,0.895c0.358,0.176,0.59,0.31,0.692,0.373c0,0,0.664-0.328,0.814-0.574   c0.195-0.317,0.225-1.117,0.225-1.117c-0.6-0.387-1.727-0.938-3.367-1.479c-1.074-0.354-2.217-0.646-3.42-0.875   c-1.771-2.024-9.604-6.145-11.506-6.055c-0.682,0.032-0.955,0.018-1.193-0.049c-0.182-0.051-1.35-0.542-1.557-0.623   c-1.162-0.458-2.254-0.504-3.186-0.301c-0.205,0.045-0.362,0.094-0.465,0.134l-0.257,0.101l-0.167,0.223   c0.036-0.047-0.026-0.002-0.265,0.092c-0.551,0.213-1.408,0.35-2.628,0.35h-0.362c-1.993-0.002-2.691,0.029-3.648,0.217   c-1.139,0.221-2.239,0.653-3.645,1.441c-1.438,0.809-3.337,2.771-4.748,4.729c-0.667,0.927-1.094,1.67-1.198,2.191   C28.869,59.379,29.395,60.168,30.317,59.997z"/></g><text x="0" y="98" fill="#000000" font-size="5px" font-weight="bold" font-family="'Helvetica Neue', Helvetica, Arial-Unicode, Arial, Sans-serif">Created by Sixth planet</text><text x="0" y="103" fill="#000000" font-size="5px" font-weight="bold" font-family="'Helvetica Neue', Helvetica, Arial-Unicode, Arial, Sans-serif">from the Noun Project</text></svg>